@startuml

title HTML puppeteer - Classes Diagram

abstract AbstractComponent {
  #config
  #dataAttributes
  #eventsBinder
  #id
  #options
  #parent
  #stateChangesHandlersInvoker
  #stateHolder
  #stateInitializer
  #doWithState(stateUpdaterFn)
  +appendStateChangesHandlers(\nstateChangesHandlers)
  +close()
  +constructor(options)
  +disconnect()
  +getStateCopy()
  +partName()
  +render(value)
  +replaceFromParent()
  +replaceState(newState)
  +isStateEmpty(): boolean
}

note left of AbstractComponent::config
constructor <i>options</i> + <i>dataAttributes</i>
end note

note left of AbstractComponent::options
constructor <i>options</i>
end note

note left of AbstractComponent::doWithState
Applies (using <i>stateUpdaterFn</i>)
the state changes then
passes the related events to
<i>StateChangesHandlersInvoker</i>.
end note

note left of AbstractComponent::"close()"
Clears the state
and <i>disconnect()</i>.
end note

note left of AbstractComponent::"disconnect()"
Detaches the DOM
event handlers.
end note

note left of AbstractComponent::"render(value)"
Attaches DOM event
handlers, initializes the
state using <i>value</i>
(if provided, otherwise
uses <i>stateInitializer</i>).
end note

class ChildrenShells {
#$containerElem: jQuery<HTMLElement>
#childrenShellFinder: ChildrenShellFinder
#parentId: string
#place: "append" | "prepend"
#shellIsContainerHtml: boolean
#shellTemplate: string
+constructor(options)
+createAndPlaceShell(partName)
}

class ChildrenCollection {
#children: {partName: AbstractComponent}
#childrenOptions
#childrenShellFinder: ChildrenShellFinder
#dontRender: boolean
#parent: AbstractComponent
+closeAndRemoveChild(partName)
+closeAndRemoveChildren()
+constructor(options)
+createChildrenForExistingShells()
+createOrUpdateChild(partName, $shell)
+disconnectAndRemoveChildren()
+getChildById(itemId)
+getChildByPartName(partName)
+updateFromParent(partName)
}

abstract EventsBinder {
  component: AbstractComponent
  +constructor(component)
  {abstract}+attachEventHandlers()
  {abstract}+detachEventHandlers()
}

note top of EventsBinder
  Contains handlers for DOM events.
  Usual handler processing:
  - capture only intended events
  (use business agnostic filters)
  - invoke suitable component methods
end note

abstract StateInitializer {
{abstract}+load(component)
}

class ValueStateInitializer extends StateInitializer {
#value
+load(component)
}

class ChildStateInitializer extends ValueStateInitializer {
+load(component)
}

class StateChange {
#changeType: string
#previousState
#newState
+constructor(previousStateOrPart, newStateOrPart)
}

class PartStateChange extends StateChange {
#newPart
#newPartName
#previousPart
#previousPartName
constructor(\npreviousCompleteState,\nnewCompleteState,\npreviousPart, newPart,\npreviousPartName,\nnewPartName)
}

'interface StateChangeAugmenter<T extends StateChange> {
interface StateChangeAugmenter {
+augment(stateChange): T
}

interface StateChangesCollector {
#stateChanges
#stateChangeAugmenter
+collect(stateChange)
+collect(stateChanges)
+consumeOne(): StateChange
+consumeAll(): StateChange[]
}

interface StateHolder {
#_currentState
#_stateChangesCollector
/'
#_collectStateChanges(\nstateChanges): StateChange[]
#_currentStateEquals(\nanotherState): boolean
#_replaceImpl(newState): previousState
#_stateChangesOf(previousState,\nnewState): StateChange[]
'/
+constructor({stateChangeAugmenter,\nstateChangesCollector, ...restOfOptions})
+isEmpty(): boolean
+replace(newState,\n[dontRecordChanges]): StateChange[]
+stateChangesCollector()
+stateCopy()
}

/'note left of StateHolder::replace
Besides replacing the
state it'll also record
the changes using
<i>stateChangesCollector</i>.
end note'/

interface PartialStateHolder extends StateHolder {
+getPart(partName, [dontClone])
+getParts(): {[key: string]: *}[]
+hasEmptyPart(partName): boolean
+replacePart(\npreviousPartName, \nnewPart, newPartName, \n[dontRecordChanges])
}

' note left of PartialStateHolder::replacePart
note bottom of PartialStateHolder
A null/undefined replacement
value should be treated as
"completelly remove the
associated objects" while
an empty object should be
treated as: the part's are
missing but the whole exists.
end note

class BasicContainerComponent extends AbstractComponent {
  #childrenCollection: ChildrenCollection
  #childrenShells: ChildrenShells
  +close()
  +constructor(options)
  +disconnect()
  +getPart(partName)
  +replacePart(previousPartName, newPart, newPartName)
  +replacePartByChildId(childId, newPart, newPartName)
  +replaceParts(parts)
  +replaceState(newState)
}

BasicContainerComponent *-- ChildrenCollection
BasicContainerComponent *-- ChildrenShells

/'interface ErrorsHandler {
+accept(error)
}'/

interface AbstractView {
+create(value)
+remove()
+replace(value)
}

/'note right of AbstractView::create
Creates the DOM
element to contain
the <i>value</i> to display.
If <i>value</i> is not empty
calls <i>replace(value)</i>
to show them.
end note'/

/'note left of AbstractView::replace
Replaces the previous
displayed value with
the new ones.
end note'/

/'note right of AbstractView::remove
Removes the view's
DOM element.
end note'/

class SimpleView implements AbstractView {
#$elem: jQuery<HTMLElement>
#removedPlaceholder
#viewRemovalStrategy: \n\tREMOVE_ELEMENT |\n\tREMOVE_CONTENT |\n\tUSE_HTML
#viewRenderStrategy: \n\tRENDER_VAL |\n\tRENDER_TEXT |\n\tRENDER_HTML
#viewValuesTransformer
+constructor(options)
+create(values)
+remove()
+replace(values)
}

class AbstractTemplateView extends SimpleView {
#htmlTemplate: string
+constructor({htmlTemplate,\ntemplateId, ...restOfOptions})
}

class SimpleTemplateView extends AbstractTemplateView {
+remove()
+replace(values)
}

class StateChangesHandlersInvoker {
#stateChangesHandlers
+appendStateChangesHandlers(...stateChangesHandler)
+constructor(options)
+processStateChanges(stateChangesCollector)
}

/'note left of StateChangesHandlersInvoker::handlerMappingRules
Defaults to:
- map state initialization
(aka creation) to
<i>created(stateChange)</i>
- map state modification
to <i>replaced(stateChange)</i>
- map state part (aka section)
modification to
<i>partReplaced(stateChange)</i>
- map state part removal to
<i>partRemoved(stateChange)</i>
end note'/

' note left of StateChangesHandlersInvoker::processStateChanges
note top of StateChangesHandlersInvoker
Conveys state changes
to the registered handlers.
end note

interface StateChangesHandler {
+created(stateChange)
+replaced(stateChange)
+removed(stateChange)
+changeOccurred(stateChange)
}

interface PartialStateChangesHandler extends StateChangesHandler {
+partChangeOccurred(stateChange)
+partCreated(stateChange)
+partRelocated(stateChange)
+partRemoved(stateChange)
+partReplaced(stateChange)
}

class ComponentIllustrator implements StateChangesHandler {
#view: AbstractView
+constructor({view, viewProviderFn, ...restOfOptions})
+created(stateChange)
+removed(stateChange)
+replaced(stateChange)
}

note top of ComponentIllustrator
<i>created</i>, <i>replaced</i>, <i>removed</i>
methods delegate to the
corresponding <i>view</i> methods.
<i>changeOccurred</i> does nothing.
end note

class SimplePartsIllustrator extends ComponentIllustrator implements PartialStateChangesHandler {
+constructor({viewValuesTransformer, ...restOfOptions})
+partChangeOccurred(partStateChange)
+partCreated(partStateChange)
+partRelocated(partStateChange)
+partRemoved(partStateChange)
+partReplaced(partStateChange)
}

note left of SimplePartsIllustrator
By default will render
(aka pass to <i>view</i>) the
complete new state.
end note

AbstractComponent *-- EventsBinder
AbstractComponent *-- StateHolder
AbstractComponent *-- StateInitializer
'AbstractComponent *-down- DomValuesReader
'AbstractComponent *-down- ErrorsHandler
AbstractComponent *-- StateChangesHandlersInvoker
StateChangesHandlersInvoker *-- "many" StateChangesHandler
ComponentIllustrator *-- AbstractView
StateHolder *-- StateChangesCollector
StateChangesCollector *-- "many" StateChange
StateChangesCollector *-- StateChangeAugmenter

@enduml
